<svg version="1.0" xmlns="http://www.w3.org/2000/svg"
  viewBox="0 0 6468.000000 1733.000000"
 preserveAspectRatio="xMidYMid meet">
<g transform="translate(0.000000,1733.000000) scale(0.100000,-0.100000)"
fill="currentColor">
<path d="M11910 16505 c-1296 -1280 -1740 -1730 -1740 -1764 0 -21 125 -151
1800 -1876 2229 -2297 5146 -5290 6265 -6430 770 -784 798 -813 792 -827 -7
-19 -156 -195 -404 -480 -120 -137 -230 -268 -245 -290 -71 -104 -40 -137 482
-528 278 -208 570 -432 1200 -920 258 -200 741 -538 1060 -742 1321 -843 2915
-1564 4585 -2073 579 -176 1310 -336 1985 -434 794 -116 1317 -148 2250 -137
806 9 1041 21 1900 101 1178 110 1829 226 2749 490 2134 611 4531 1896 6186
3315 461 396 1000 932 1844 1835 635 679 830 864 971 920 69 27 563 33 3780
44 4123 15 4516 20 4765 56 87 13 116 22 220 74 138 69 252 155 338 257 287
339 488 910 513 1459 12 253 -27 523 -112 775 -96 286 -182 412 -556 820 -88
96 -1010 1024 -2049 2061 -1039 1038 -1889 1891 -1889 1896 0 17 540 23 2198
23 l1613 0 -3 319 c-2 176 -5 321 -8 324 -3 3 -358 1 -790 -4 -432 -6 -1683
-8 -2780 -6 -1857 3 -2003 4 -2115 21 -257 38 -437 107 -620 237 -163 116
-521 487 -495 513 8 8 655 12 2228 14 l2217 4 33 31 c69 66 77 111 32 178 -32
49 -838 879 -1071 1103 -188 181 -276 251 -374 296 l-80 37 -1995 5 c-2275 6
-3203 -1 -3264 -24 l-39 -14 34 -14 c46 -19 263 -232 623 -615 165 -176 418
-444 561 -595 217 -229 618 -660 1104 -1184 119 -128 146 -165 135 -176 -5 -5
-110 -47 -234 -93 -912 -343 -1504 -584 -1790 -727 -374 -187 -546 -306 -831
-576 -203 -191 -339 -342 -339 -376 0 -18 -207 -330 -226 -341 -8 -4 -14 -18
-14 -29 0 -12 -24 -74 -54 -137 -30 -64 -58 -129 -62 -146 -4 -16 -15 -41 -25
-55 -21 -30 -148 -448 -184 -605 -88 -388 -132 -854 -122 -1285 8 -340 34
-558 123 -1015 20 -100 39 -236 43 -305 4 -69 13 -136 20 -148 7 -13 17 -91
23 -175 9 -131 8 -161 -6 -215 -9 -35 -16 -74 -16 -86 0 -43 -69 -161 -150
-258 -84 -101 -317 -329 -530 -517 -97 -86 -147 -123 -225 -163 -123 -63 -197
-109 -253 -158 -23 -21 -75 -55 -115 -75 -123 -65 -177 -104 -177 -130 0 -44
129 -128 301 -195 121 -48 267 -57 1242 -80 241 -5 445 -13 453 -18 33 -19
-264 -351 -735 -823 -456 -455 -832 -800 -1286 -1180 -1178 -987 -2671 -1966
-3858 -2530 -763 -363 -1368 -579 -2231 -798 -2165 -550 -4146 -613 -6106
-195 -1175 251 -2206 644 -3405 1300 -998 545 -1652 982 -2440 1628 -599 491
-1446 1263 -1606 1464 -32 40 -74 106 -94 147 l-35 74 -7 2506 -6 2506 -85 90
c-46 49 -95 92 -109 95 -61 16 -122 -35 -747 -620 l-117 -110 -2262 2262
-2262 2262 645 0 c728 -1 1306 -13 1395 -30 125 -23 181 -49 347 -161 92 -61
184 -116 210 -124 27 -8 108 -17 181 -21 l133 -7 1110 1109 c1066 1065 1496
1504 1665 1698 76 87 78 91 57 100 -14 5 -1681 10 -4113 13 l-4090 4 -835
-826z m34355 -2450 c75 -36 335 -287 1650 -1591 1402 -1392 2204 -2202 2227
-2251 9 -20 23 -40 32 -45 20 -11 56 -128 56 -184 0 -81 -33 -128 -155 -218
l-49 -37 -2576 4 c-2637 4 -2716 5 -2880 43 -92 21 -273 112 -352 178 -36 30
-132 118 -211 196 -99 95 -153 140 -168 140 -40 0 -364 -336 -1009 -1045 -363
-399 -417 -469 -450 -580 -21 -68 -64 -126 -80 -108 -10 11 -103 589 -134 833
-80 631 -71 1076 34 1690 43 250 75 382 130 543 181 533 530 1028 984 1396
118 96 236 174 393 263 387 217 775 357 1758 636 637 182 687 190 800 137z"/>
<path d="M2630 17200 l-2405 -5 -112 -57 -112 -56 382 -364 c803 -765 1350
-1277 1466 -1372 l74 -61 -114 -2 c-63 -2 -418 -7 -789 -12 -371 -5 -683 -13
-693 -17 -16 -6 145 -171 876 -903 584 -584 902 -910 915 -936 11 -22 23 -55
27 -72 l7 -33 -1051 0 -1051 0 0 -3190 0 -3190 5094 0 5095 0 -1940 1938
c-1067 1065 -1945 1939 -1951 1941 -14 5 -78 -65 -268 -289 -341 -403 -515
-557 -777 -689 -130 -65 -240 -97 -384 -111 -122 -12 -1210 -29 -1906 -30
l-423 0 0 679 0 678 1753 6 c963 4 1767 9 1785 13 17 3 32 9 32 13 0 13 -772
802 -1420 1453 -692 694 -657 663 -834 723 -104 35 -225 43 -812 51 l-502 7
-7 425 c-4 234 -5 565 -2 736 6 357 10 386 80 460 l42 45 3775 11 c2076 6
3795 14 3820 19 l45 8 -1095 1096 -1095 1097 -1560 -2 c-858 -2 -2642 -5
-3965 -8z"/>
<path d="M31315 17200 c-581 -6 -785 -17 -785 -40 0 -15 2019 -2035 2026
-2027 4 4 11 79 15 165 3 87 11 168 17 179 8 14 27 24 54 30 55 10 2273 5
2863 -7 276 -6 466 -14 493 -21 26 -7 53 -24 68 -43 25 -29 26 -35 21 -106 -7
-99 -42 -185 -132 -319 -188 -282 -506 -638 -1775 -1986 -401 -427 -679 -726
-807 -870 l-61 -70 -184 181 c-195 193 -223 216 -232 186 -9 -34 -16 -542 -27
-1947 -14 -2021 -25 -2786 -42 -2861 -18 -84 -35 -105 -111 -145 l-66 -34 0
-267 0 -268 1780 0 1780 0 0 688 c0 707 12 1498 30 1982 24 642 53 822 157
975 65 96 216 251 938 962 1195 1178 1230 1215 1682 1818 336 449 428 589 567
865 140 279 198 444 226 635 28 198 19 732 -15 901 -26 125 -91 308 -159 449
-182 372 -432 623 -811 815 -225 114 -382 152 -710 171 -220 13 -5798 21
-6800 9z"/>
<path d="M54640 17199 c-525 -9 -608 -19 -677 -82 -43 -39 -77 -4 991 -1007
395 -371 752 -706 793 -744 52 -49 71 -72 64 -79 -8 -8 -263 -13 -796 -18
-432 -4 -789 -10 -793 -13 -6 -7 220 -233 1290 -1291 505 -499 594 -593 575
-611 -17 -18 -236 -24 -1129 -30 l-988 -7 0 -3194 0 -3193 5190 0 c4941 0
5190 1 5181 18 -12 22 -766 772 -2451 2438 -1371 1356 -1468 1450 -1473 1443
-79 -100 -643 -723 -743 -820 -128 -124 -279 -209 -459 -260 -119 -33 -324
-38 -1547 -39 l-1178 0 0 680 0 680 468 1 c257 1 1099 5 1871 8 l1403 6 -873
836 c-1168 1117 -1264 1206 -1381 1276 -29 18 -109 48 -178 68 -112 32 -143
37 -315 46 -104 5 -370 13 -590 17 l-400 7 0 755 c0 806 0 807 50 863 l24 27
3873 11 c2130 5 3954 11 4053 12 l180 2 -672 665 c-739 730 -1377 1354 -1492
1458 l-74 67 -1246 6 c-1648 9 -6026 7 -6551 -2z"/>
<path d="M21990 13151 l0 -4040 783 -3 c554 -2 788 -6 801 -14 17 -10 -10 -41
-261 -300 -154 -159 -639 -644 -1078 -1079 l-798 -790 194 -8 c243 -10 2955 0
3065 11 65 7 89 14 125 39 95 66 298 260 885 847 629 630 1025 1038 1217 1256
l111 125 -925 6 c-508 3 -1197 7 -1531 8 l-608 1 0 3990 0 3990 -990 0 -990 0
0 -4039z"/>
<path d="M27790 17180 c-124 -7 -185 -19 -227 -43 -24 -14 -93 -96 -93 -112 0
-6 82 -91 183 -190 534 -525 1276 -1269 1271 -1274 -3 -3 -269 -8 -591 -12
-471 -4 -586 -8 -593 -19 -4 -7 -12 -79 -17 -159 -10 -183 -10 -8201 1 -8333
6 -79 11 -96 22 -90 21 12 371 350 1187 1146 l747 729 105 196 106 196 -4
3730 c-4 3674 -9 4166 -37 4200 -15 19 -84 29 -108 16 -11 -6 -26 -25 -33 -43
l-13 -33 -4 53 -3 52 -887 -2 c-488 0 -943 -4 -1012 -8z"/>
</g>
</svg>